<?xml version="1.0" encoding="utf-8"?>
<!-- Generator: Adobe Illustrator 25.4.1, SVG Export Plug-In . SVG Version: 6.00 Build 0)  -->
<svg version="1.1" id="Capa_1" xmlns="http://www.w3.org/2000/svg" xmlns:xlink="http://www.w3.org/1999/xlink" x="0px" y="0px"
	 viewBox="0 0 512 512" style="enable-background:new 0 0 512 512;" xml:space="preserve">
<style type="text/css">
	.st0{fill:#9BD5EF;}
</style>
<g>
	<path class="st0" d="M249.1,0c88.6,0,175.8,40.8,175.8,138.3c0,90-103.1,124.6-125.2,157.1c-16.6,24.2-11.1,58.2-56.7,58.2
		c-29.7,0-44.3-24.2-44.3-46.3c0-82.4,121.1-101,121.1-168.9c0-37.3-24.9-59.5-66.4-59.5c-88.6,0-54,91.3-121.1,91.3
		c-24.2,0-45-14.5-45-42.2C87.2,60.1,164.7,0,249.1,0z M245.6,398.5c31.1,0,56.7,25.6,56.7,56.8S276.8,512,245.6,512
		s-56.8-25.5-56.8-56.8C188.9,424.1,214.5,398.5,245.6,398.5z"/>
</g>
</svg>
