<?xml version="1.0" encoding="utf-8"?>
<!-- Generator: Adobe Illustrator 25.4.1, SVG Export Plug-In . SVG Version: 6.00 Build 0)  -->
<svg version="1.1" id="Capa_1" xmlns="http://www.w3.org/2000/svg" xmlns:xlink="http://www.w3.org/1999/xlink" x="0px" y="0px"
	 viewBox="0 0 512 512" style="enable-background:new 0 0 512 512;" xml:space="preserve">
<style type="text/css">
	.st0{fill:#CFE4B3;}
</style>
<g>
	<path class="st0" d="M501.8,196.4c-6.8-6.8-15-10.2-24.7-10.2H325.8V34.9c0-9.7-3.4-17.9-10.2-24.7C308.8,3.4,300.6,0,290.9,0
		h-69.8c-9.7,0-17.9,3.4-24.7,10.2s-10.2,15-10.2,24.7v151.3H34.9c-9.7,0-17.9,3.4-24.7,10.2S0,211.4,0,221.1v69.8
		c0,9.7,3.4,17.9,10.2,24.7c6.8,6.8,15,10.2,24.7,10.2h151.3v151.3c0,9.7,3.4,17.9,10.2,24.7c6.8,6.8,15,10.2,24.7,10.2h69.8
		c9.7,0,17.9-3.4,24.7-10.2c6.8-6.8,10.2-15,10.2-24.7V325.8h151.3c9.7,0,17.9-3.4,24.7-10.2c6.8-6.8,10.2-15,10.2-24.7v-69.8
		C512,211.4,508.6,203.1,501.8,196.4z"/>
</g>
</svg>
